<?xml version="1.0" encoding="UTF-8"?><svg id="a" xmlns="http://www.w3.org/2000/svg" viewBox="0 0 589 209.58"><path d="m30.22,0h528.55c8.32,0,15.88,2.89,21.35,7.53s8.87,11.06,8.87,18.12v105.75c0,7.06-3.4,13.48-8.87,18.12-4.73,4.01-11.01,6.71-17.99,7.37v39.08c0,9.19-8.74,16.03-19.36,12.77-3.75-1.16-7.89-3.91-11.87-8.32l-40.09-43.37H30.22c-8.32,0-15.88-2.89-21.35-7.53-5.48-4.65-8.87-11.06-8.87-18.12V25.66c0-7.06,3.4-13.48,8.87-18.12C14.35,2.89,21.91,0,30.22,0h0Zm520.63,147.49h7.92c5.2,0,9.94-1.81,13.37-4.73,3.43-2.91,5.57-6.93,5.57-11.35V25.66c0-4.42-2.13-8.43-5.57-11.35-3.43-2.91-8.17-4.73-13.37-4.73H30.22c-5.2,0-9.94,1.81-13.37,4.73-3.43,2.92-5.57,6.93-5.57,11.35v105.75c0,4.42,2.13,8.43,5.57,11.35,3.43,2.92,8.17,4.73,13.37,4.73h466.46c15.68,16.73,30.95,33.71,46.62,50.43,2.49,2.8,7.62,3.27,7.55-2.14v-48.28h0Z" style="stroke-width:0px;"/><path d="m30.32,44.57c-.15-.59-.22-.95-.22-1.1,0-.88.29-1.69.88-2.42.59-.73,1.32-1.36,2.2-1.87.88-.51,1.85-.92,2.92-1.21,1.06-.29,2.07-.44,3.02-.44,1.25,0,2.29.22,3.14.66.84.44,1.41,1.17,1.71,2.2l16.83,59.62,16.72-59.62c.29-1.03.86-1.76,1.71-2.2.84-.44,1.89-.66,3.14-.66.95,0,1.96.15,3.02.44,1.06.29,2.03.71,2.92,1.26.88.55,1.61,1.17,2.2,1.87.59.7.88,1.49.88,2.37,0,.15-.07.51-.22,1.1l-21.12,69.19c-.51,1.69-1.65,2.92-3.41,3.68-1.76.77-3.7,1.16-5.83,1.16s-4.05-.38-5.78-1.16c-1.72-.77-2.88-2-3.46-3.68L30.32,44.57Z" style="stroke-width:0px;"/><path d="m98.96,41.93c0-1.17.42-2.2,1.27-3.08.84-.88,1.96-1.32,3.35-1.32h21.78c3.59,0,6.97.38,10.12,1.16,3.15.77,5.92,2.04,8.3,3.79,2.38,1.76,4.25,4.11,5.61,7.04,1.36,2.93,2.03,6.6,2.03,11,0,6.31-1.38,11.24-4.12,14.79-2.75,3.56-6.18,5.96-10.28,7.21l14.41,26.73c.22.29.37.61.44.94.07.33.11.6.11.83,0,.88-.27,1.78-.83,2.69-.55.92-1.25,1.72-2.09,2.42-.84.7-1.8,1.27-2.86,1.71-1.06.44-2.11.66-3.14.66s-1.96-.29-2.81-.88c-.84-.59-1.56-1.43-2.15-2.53l-15.62-30.36h-9.24v28.71c0,1.47-.73,2.58-2.2,3.35-1.47.77-3.12,1.16-4.95,1.16s-3.39-.38-4.9-1.16c-1.5-.77-2.25-1.89-2.25-3.35V41.93Zm14.3,8.14v23.43h12.1c3.59,0,6.45-.86,8.58-2.58,2.13-1.72,3.19-4.75,3.19-9.07s-1.06-7.37-3.19-9.13c-2.13-1.76-4.99-2.64-8.58-2.64h-12.1Z" style="stroke-width:0px;"/><path d="m194.83,28.27h331.24c12.42,0,22.57,7.45,22.57,16.55v67.28c0,9.1-10.16,16.55-22.57,16.55H194.83c-12.42,0-22.57-7.45-22.57-16.55V44.82c0-9.1,10.16-16.55,22.57-16.55h0Z" style="fill-rule:evenodd; stroke-width:0px;"/><path d="m246.38,118.58c-1.69,0-3.25-.33-4.68-.99s-2.62-1.83-3.57-3.52l-23.65-44.22v44.22c0,1.47-.75,2.58-2.26,3.35-1.5.77-3.13,1.16-4.89,1.16s-3.48-.38-4.95-1.16c-1.47-.77-2.2-1.89-2.2-3.35V42.68c0-1.54.73-2.68,2.2-3.41,1.46-.73,3.12-1.1,4.95-1.1,1.32,0,2.46.09,3.41.28.95.18,1.81.55,2.59,1.1.77.55,1.52,1.32,2.25,2.31.73.99,1.54,2.29,2.42,3.9l21.23,41.03v-44.22c0-1.54.73-2.66,2.2-3.36,1.47-.7,3.12-1.04,4.95-1.04s3.39.35,4.89,1.04c1.5.7,2.26,1.82,2.26,3.36v71.5c0,1.47-.75,2.58-2.26,3.35-1.5.77-3.13,1.16-4.89,1.16Z" style="fill:#fff; stroke-width:0px;"/><path d="m291.58,119.24c-3.67,0-7.06-.46-10.17-1.38-3.12-.92-5.83-2.37-8.14-4.34-2.31-1.98-4.12-4.57-5.44-7.76-1.32-3.19-1.98-7.09-1.98-11.71v-30.69c0-4.62.66-8.53,1.98-11.71,1.32-3.19,3.13-5.78,5.44-7.76,2.31-1.98,5.02-3.43,8.14-4.34,3.12-.92,6.51-1.38,10.17-1.38s6.97.46,10.12,1.38c3.15.92,5.9,2.37,8.25,4.34,2.35,1.98,4.18,4.57,5.5,7.76,1.32,3.19,1.98,7.09,1.98,11.71v30.69c0,4.62-.66,8.53-1.98,11.71-1.32,3.19-3.15,5.78-5.5,7.76-2.35,1.98-5.1,3.43-8.25,4.34-3.15.92-6.53,1.38-10.12,1.38Zm11.55-55.88c0-4.4-1.03-7.61-3.08-9.62-2.05-2.02-4.88-3.03-8.47-3.03s-6.49,1.01-8.47,3.03c-1.98,2.02-2.97,5.22-2.97,9.62v30.69c0,4.4.99,7.61,2.97,9.62,1.98,2.02,4.8,3.03,8.47,3.03s6.42-1.01,8.47-3.03c2.05-2.02,3.08-5.22,3.08-9.62v-30.69Z" style="fill:#fff; stroke-width:0px;"/><path d="m374.08,38.17c1.54,0,2.68.68,3.41,2.04.73,1.36,1.1,2.8,1.1,4.34,0,1.69-.38,3.19-1.16,4.51-.77,1.32-1.89,1.98-3.35,1.98h-16.06v63.03c0,1.47-.75,2.58-2.25,3.35-1.5.77-3.13,1.16-4.89,1.16s-3.48-.38-4.95-1.16c-1.47-.77-2.2-1.89-2.2-3.35v-63.03h-16.17c-1.47,0-2.58-.64-3.36-1.92-.77-1.28-1.15-2.8-1.15-4.57,0-1.54.37-2.99,1.1-4.34.73-1.36,1.87-2.04,3.41-2.04h46.53Z" style="fill:#fff; stroke-width:0px;"/><path d="m386.4,42.57c0-1.54.73-2.66,2.2-3.36,1.47-.7,3.12-1.04,4.95-1.04s3.39.35,4.89,1.04c1.5.7,2.26,1.82,2.26,3.36v71.5c0,1.47-.75,2.58-2.26,3.35-1.5.77-3.13,1.16-4.89,1.16s-3.48-.38-4.95-1.16c-1.47-.77-2.2-1.89-2.2-3.35V42.57Z" style="fill:#fff; stroke-width:0px;"/><path d="m413.9,42.68c0-1.47.64-2.58,1.93-3.35,1.28-.77,2.73-1.16,4.34-1.16h38.39c1.54,0,2.66.66,3.36,1.98.7,1.32,1.04,2.71,1.04,4.18,0,1.69-.37,3.17-1.1,4.46-.73,1.28-1.83,1.92-3.3,1.92h-30.36v22h16.83c1.47,0,2.57.59,3.3,1.76.73,1.17,1.1,2.49,1.1,3.96,0,1.25-.35,2.48-1.04,3.69-.7,1.21-1.82,1.81-3.35,1.81h-16.83v30.14c0,1.47-.75,2.58-2.26,3.35-1.5.77-3.13,1.16-4.89,1.16s-3.48-.38-4.95-1.16c-1.47-.77-2.2-1.89-2.2-3.35V42.68Z" style="fill:#fff; stroke-width:0px;"/><path d="m487.6,86.35c0-.59-.11-1.06-.33-1.43l-22.77-39.38c-.22-.51-.33-.99-.33-1.43,0-.88.31-1.69.93-2.42.62-.73,1.41-1.36,2.37-1.87.95-.51,1.98-.92,3.08-1.21,1.1-.29,2.13-.44,3.08-.44,1.17,0,2.07.22,2.69.66s1.19,1.17,1.71,2.2l16.72,31.79,16.83-31.79c.51-.95,1.06-1.67,1.65-2.15.59-.48,1.47-.71,2.64-.71.95,0,1.98.15,3.08.44,1.1.29,2.13.7,3.08,1.21.95.51,1.74,1.14,2.37,1.87.62.73.94,1.54.94,2.42,0,.15-.02.35-.06.6-.04.26-.13.53-.27.83l-22.66,39.38c-.29.44-.44.92-.44,1.43v27.72c0,1.47-.73,2.58-2.2,3.35-1.47.77-3.12,1.16-4.95,1.16s-3.39-.38-4.9-1.16c-1.5-.77-2.25-1.89-2.25-3.35v-27.72Z" style="fill:#fff; stroke-width:0px;"/></svg>